<?xml version="1.0" encoding="UTF-8"?>
<svg version="1.1" xmlns="http://www.w3.org/2000/svg" width="512" height="512">
<path d="M0 0 C0 132 0 264 0 400 C-23.38254416 400 -23.38254416 400 -32.25 398.4375 C-33.28882324 398.26041504 -34.32764648 398.08333008 -35.39794922 397.90087891 C-87.61814401 388.46577352 -134.10204542 358.74278044 -164.5859375 315.34765625 C-167.15291861 311.62435523 -169.59975467 307.83249049 -172 304 C-172.37866211 303.40058594 -172.75732422 302.80117188 -173.14746094 302.18359375 C-184.9753301 283.18514302 -192.27528323 261.77337343 -197 240 C-197.17644043 239.24170898 -197.35288086 238.48341797 -197.53466797 237.70214844 C-203.38980667 211.8095529 -202.13326383 180.65139632 -196 155 C-195.76394043 154.01225586 -195.52788086 153.02451172 -195.28466797 152.00683594 C-182.65013724 101.19174716 -150.54285741 56.69947626 -105.9375 29.1875 C-72.92345002 9.38542362 -38.54900773 0 0 0 Z " fill="#88BFF7" transform="translate(224,56)"/>
<path d="M0 0 C66 0 132 0 200 0 C200 23.38254416 200 23.38254416 198.4375 32.25 C198.26041504 33.28882324 198.08333008 34.32764648 197.90087891 35.39794922 C188.45393535 87.6836644 158.74180518 133.93119227 115.41796875 164.55078125 C80.59271417 188.67206862 42.29205881 200 0 200 C0 134 0 68 0 0 Z " fill="#FFDA74" transform="translate(264,288)"/>
<path d="M0 0 C35.14875246 0 66.10316984 7.56259571 97 24 C98.15886719 24.60328125 99.31773437 25.2065625 100.51171875 25.828125 C114.88510172 33.62941382 132.79321386 45.18982079 142 59 C123.63618113 77.38714306 105.26952703 95.77144978 86.89946079 114.15235138 C78.37066294 122.68631321 69.84280771 131.22121307 61.31713867 139.75830078 C53.88920118 147.196182 46.45952824 154.63232444 39.02773517 162.06635332 C35.08998664 166.00540949 31.15313364 169.94535168 27.21835518 173.88737488 C23.51962013 177.59286525 19.81858046 181.29603751 16.11571121 184.99739647 C14.75264193 186.3607423 13.39043817 187.72495406 12.02913857 189.09006691 C10.17942715 190.94470795 8.32670978 192.79629122 6.47315979 194.64709473 C5.92744892 195.19571844 5.38173805 195.74434215 4.81949049 196.30959082 C1.11412121 200 1.11412121 200 0 200 C0 134 0 68 0 0 Z " fill="#FF9696" transform="translate(256,24)"/>
<path d="M0 0 C1.12101625 0.95371093 2.24101958 1.90861256 3.3605957 2.86401367 C3.98440628 3.39564621 4.60821686 3.92727875 5.25093079 4.47502136 C37.62276918 32.69938299 54.40579168 80.65212508 59 122 C59 128.6 59 135.2 59 142 C-7 142 -73 142 -141 142 C-137.140199 137.49689884 -133.33945585 133.19518906 -129.15335083 129.03309631 C-128.59694471 128.47583577 -128.04053859 127.91857523 -127.46727169 127.344428 C-125.62263192 125.49815549 -123.77446764 123.65545405 -121.92626953 121.81274414 C-120.59513724 120.48189422 -119.26422571 119.15082347 -117.93351746 117.81954956 C-114.33498316 114.22072925 -110.73338173 110.62499285 -107.1312089 107.02981496 C-103.36179037 103.26666264 -99.59521789 99.50066387 -95.82833862 95.73497009 C-88.70130878 88.61104394 -81.57173442 81.48967 -74.44123542 74.36921638 C-66.32077103 66.25994302 -58.20315792 58.14781799 -50.08577943 50.03545582 C-33.39368345 33.35380245 -16.6980218 16.67572159 0 0 Z " fill="#79E6BB" transform="translate(429,114)"/>
</svg>
